<?xml version="1.0" encoding="UTF-8"?><svg id="Layer_1" xmlns="http://www.w3.org/2000/svg" viewBox="0 0 332.87 132"><defs><style>.cls-1{fill:#161616;}</style></defs><g id="Page-1"><g id="ibm-8-bar-logo--h15-copy"><path id="Combined-Shape" class="cls-1" d="M332.87,123.2v8.8h-43.8v-8.8h43.8ZM227.75,123.2v8.8h-43.8v-8.8h43.8ZM261.93,123.2l-3.52,8.8-3.48-8.8h7ZM163.81,123.2c-6.28,5.46-14.57,8.8-23.83,8.8h-69.9v-8.8h93.73ZM61.32,123.2v8.8H0v-8.8h61.32ZM227.75,105.6v8.8h-43.8v-8.8h43.8ZM268.77,105.6l-3.41,8.8h-13.87l-3.44-8.8h20.71ZM172.57,105.6c-.79,3.13-2.05,6.08-3.68,8.8h-98.81v-8.8h102.49ZM61.32,105.6v8.8H0v-8.8h61.32ZM332.87,105.6v8.8h-43.8v-8.8h43.8ZM315.35,88v8.8h-26.28v-8.8h26.28ZM227.75,88v8.8h-26.28v-8.8h26.28ZM275.65,88l-3.44,8.8h-27.58l-3.47-8.8h34.49ZM171.34,88c.79,2.81,1.23,5.75,1.23,8.8h-32.41v-8.8h31.18ZM113.88,88v8.8h-26.28v-8.8h26.28ZM43.8,88v8.8h-26.28v-8.8h26.28ZM315.35,70.4v8.8h-26.28v-8.8h26.28ZM227.75,70.4v8.8h-26.28v-8.8h26.28ZM282.51,70.4l-3.43,8.8h-41.43l-3.4-8.8h48.26ZM160.57,70.4c3.02,2.48,5.62,5.46,7.62,8.8h-80.59v-8.8h72.97ZM43.8,70.4v8.8h-26.28v-8.8h26.28ZM255.96,52.8l2.45,7.11,2.45-7.11h54.49v8.8h-26.28v-8.09l-2.98,8.09h-55.45l-2.89-8.09v8.09h-26.28v-8.8h54.48ZM43.8,52.8v8.8h-26.28v-8.8h26.28ZM168.19,52.8c-2,3.34-4.6,6.32-7.62,8.8h-72.97v-8.8h80.59ZM315.35,35.2v8.8h-51.45l3.1-8.8h48.35ZM249.85,35.2l3.1,8.8h-51.48v-8.8h48.38ZM172.57,35.2c0,3.05-.44,5.99-1.23,8.8h-31.18v-8.8h32.41ZM113.88,35.2v8.8h-26.28v-8.8h26.28ZM43.8,35.2v8.8h-26.28v-8.8h26.28ZM243.78,17.6l3.04,8.8h-62.87v-8.8s59.83,0,59.83,0ZM332.87,17.6v8.8h-62.91l3.16-8.8h59.74ZM168.89,17.6c1.63,2.72,2.89,5.67,3.68,8.8h-102.49v-8.8h98.81ZM61.32,17.6v8.8H0v-8.8h61.32ZM237.63,0l3.1,8.8h-56.78V0s53.68,0,53.68,0ZM332.87,0v8.8h-56.71l3.03-8.8h53.68ZM139.98,0c9.19,0,17.54,3.34,23.83,8.8h-93.73V0h69.9ZM61.32,0v8.8H0V0h61.32Z"/></g></g></svg>